<mxfile host="app.diagrams.net" modified="2023-04-19T05:53:15.152Z" agent="5.0 (Windows)" etag="j6EShGQjVYbp5z2c9TQJ" version="20.2.8" type="github">
  <diagram id="rm72Gj8ZxFal6YDLn9Lo" name="Page-1">
    <mxGraphModel dx="1662" dy="752" grid="1" gridSize="10" guides="1" tooltips="1" connect="1" arrows="1" fold="1" page="1" pageScale="1" pageWidth="1169" pageHeight="827" math="0" shadow="0">
      <root>
        <mxCell id="0" />
        <mxCell id="1" parent="0" />
        <mxCell id="uOPO1Oe3B9QStqaCYldA-2" value="&lt;div&gt;TESRI&lt;/div&gt;&lt;div&gt;Biodiversity&lt;/div&gt;&lt;div&gt;Observations&lt;/div&gt;" style="rounded=1;whiteSpace=wrap;html=1;" vertex="1" parent="1">
          <mxGeometry x="60" y="500" width="120" height="60" as="geometry" />
        </mxCell>
        <mxCell id="uOPO1Oe3B9QStqaCYldA-18" style="edgeStyle=orthogonalEdgeStyle;rounded=0;orthogonalLoop=1;jettySize=auto;html=1;exitX=1;exitY=0.5;exitDx=0;exitDy=0;entryX=0;entryY=0.25;entryDx=0;entryDy=0;" edge="1" parent="1" source="uOPO1Oe3B9QStqaCYldA-3" target="uOPO1Oe3B9QStqaCYldA-11">
          <mxGeometry relative="1" as="geometry">
            <Array as="points" />
          </mxGeometry>
        </mxCell>
        <mxCell id="uOPO1Oe3B9QStqaCYldA-33" style="edgeStyle=orthogonalEdgeStyle;rounded=0;orthogonalLoop=1;jettySize=auto;html=1;exitX=1;exitY=0.25;exitDx=0;exitDy=0;entryX=0;entryY=0.5;entryDx=0;entryDy=0;" edge="1" parent="1" source="uOPO1Oe3B9QStqaCYldA-3" target="uOPO1Oe3B9QStqaCYldA-13">
          <mxGeometry relative="1" as="geometry" />
        </mxCell>
        <mxCell id="uOPO1Oe3B9QStqaCYldA-3" value="&lt;div&gt;Excel&lt;/div&gt;&lt;div&gt;Access&lt;/div&gt;&lt;div&gt;CSV&lt;br&gt;&lt;/div&gt;" style="rounded=1;whiteSpace=wrap;html=1;" vertex="1" parent="1">
          <mxGeometry x="260" y="420" width="120" height="60" as="geometry" />
        </mxCell>
        <mxCell id="uOPO1Oe3B9QStqaCYldA-21" style="edgeStyle=orthogonalEdgeStyle;rounded=0;orthogonalLoop=1;jettySize=auto;html=1;exitX=1;exitY=0.5;exitDx=0;exitDy=0;entryX=0;entryY=0.75;entryDx=0;entryDy=0;" edge="1" parent="1" source="uOPO1Oe3B9QStqaCYldA-4" target="uOPO1Oe3B9QStqaCYldA-11">
          <mxGeometry relative="1" as="geometry" />
        </mxCell>
        <mxCell id="uOPO1Oe3B9QStqaCYldA-4" value="DP" style="rounded=1;whiteSpace=wrap;html=1;" vertex="1" parent="1">
          <mxGeometry x="260" y="580" width="120" height="60" as="geometry" />
        </mxCell>
        <mxCell id="uOPO1Oe3B9QStqaCYldA-19" style="edgeStyle=orthogonalEdgeStyle;rounded=0;orthogonalLoop=1;jettySize=auto;html=1;exitX=1;exitY=0.5;exitDx=0;exitDy=0;entryX=0;entryY=0.5;entryDx=0;entryDy=0;" edge="1" parent="1" source="uOPO1Oe3B9QStqaCYldA-5" target="uOPO1Oe3B9QStqaCYldA-11">
          <mxGeometry relative="1" as="geometry" />
        </mxCell>
        <mxCell id="uOPO1Oe3B9QStqaCYldA-5" value="BI" style="rounded=1;whiteSpace=wrap;html=1;" vertex="1" parent="1">
          <mxGeometry x="260" y="500" width="120" height="60" as="geometry" />
        </mxCell>
        <mxCell id="uOPO1Oe3B9QStqaCYldA-45" style="edgeStyle=orthogonalEdgeStyle;rounded=0;orthogonalLoop=1;jettySize=auto;html=1;exitX=1;exitY=0.5;exitDx=0;exitDy=0;entryX=0.25;entryY=1;entryDx=0;entryDy=0;" edge="1" parent="1" source="uOPO1Oe3B9QStqaCYldA-6" target="uOPO1Oe3B9QStqaCYldA-11">
          <mxGeometry relative="1" as="geometry" />
        </mxCell>
        <mxCell id="uOPO1Oe3B9QStqaCYldA-6" value="Gapfiller" style="rounded=1;whiteSpace=wrap;html=1;" vertex="1" parent="1">
          <mxGeometry x="260" y="660" width="120" height="60" as="geometry" />
        </mxCell>
        <mxCell id="uOPO1Oe3B9QStqaCYldA-44" style="edgeStyle=orthogonalEdgeStyle;rounded=0;orthogonalLoop=1;jettySize=auto;html=1;exitX=1;exitY=0.5;exitDx=0;exitDy=0;entryX=0.25;entryY=0;entryDx=0;entryDy=0;" edge="1" parent="1" source="uOPO1Oe3B9QStqaCYldA-7" target="uOPO1Oe3B9QStqaCYldA-14">
          <mxGeometry relative="1" as="geometry" />
        </mxCell>
        <mxCell id="uOPO1Oe3B9QStqaCYldA-7" value="TaiRON" style="rounded=1;whiteSpace=wrap;html=1;" vertex="1" parent="1">
          <mxGeometry x="260" y="340" width="120" height="60" as="geometry" />
        </mxCell>
        <mxCell id="uOPO1Oe3B9QStqaCYldA-43" style="edgeStyle=orthogonalEdgeStyle;rounded=0;orthogonalLoop=1;jettySize=auto;html=1;exitX=1;exitY=0.5;exitDx=0;exitDy=0;entryX=0.5;entryY=0;entryDx=0;entryDy=0;" edge="1" parent="1" source="uOPO1Oe3B9QStqaCYldA-8" target="uOPO1Oe3B9QStqaCYldA-14">
          <mxGeometry relative="1" as="geometry" />
        </mxCell>
        <mxCell id="uOPO1Oe3B9QStqaCYldA-8" value="TWMoths" style="rounded=1;whiteSpace=wrap;html=1;" vertex="1" parent="1">
          <mxGeometry x="260" y="260" width="120" height="60" as="geometry" />
        </mxCell>
        <mxCell id="uOPO1Oe3B9QStqaCYldA-9" value="&lt;div&gt;eBird&lt;/div&gt;" style="rounded=1;whiteSpace=wrap;html=1;" vertex="1" parent="1">
          <mxGeometry x="260" y="180" width="120" height="60" as="geometry" />
        </mxCell>
        <mxCell id="uOPO1Oe3B9QStqaCYldA-10" value="iNaturalist" style="rounded=1;whiteSpace=wrap;html=1;" vertex="1" parent="1">
          <mxGeometry x="260" y="100" width="120" height="60" as="geometry" />
        </mxCell>
        <mxCell id="uOPO1Oe3B9QStqaCYldA-24" style="edgeStyle=orthogonalEdgeStyle;rounded=0;orthogonalLoop=1;jettySize=auto;html=1;exitX=1;exitY=0.5;exitDx=0;exitDy=0;" edge="1" parent="1" source="uOPO1Oe3B9QStqaCYldA-11" target="uOPO1Oe3B9QStqaCYldA-23">
          <mxGeometry relative="1" as="geometry" />
        </mxCell>
        <mxCell id="uOPO1Oe3B9QStqaCYldA-11" value="RA" style="rounded=1;whiteSpace=wrap;html=1;" vertex="1" parent="1">
          <mxGeometry x="465" y="500" width="120" height="60" as="geometry" />
        </mxCell>
        <mxCell id="uOPO1Oe3B9QStqaCYldA-38" style="edgeStyle=orthogonalEdgeStyle;rounded=0;orthogonalLoop=1;jettySize=auto;html=1;exitX=1;exitY=0.5;exitDx=0;exitDy=0;entryX=0;entryY=0.5;entryDx=0;entryDy=0;" edge="1" parent="1" source="uOPO1Oe3B9QStqaCYldA-13" target="uOPO1Oe3B9QStqaCYldA-14">
          <mxGeometry relative="1" as="geometry" />
        </mxCell>
        <mxCell id="uOPO1Oe3B9QStqaCYldA-13" value="&lt;div&gt;Other&lt;/div&gt;&lt;div&gt;Government&lt;/div&gt;&lt;div&gt;Databases&lt;br&gt;&lt;/div&gt;" style="rounded=1;whiteSpace=wrap;html=1;" vertex="1" parent="1">
          <mxGeometry x="465" y="340" width="120" height="60" as="geometry" />
        </mxCell>
        <mxCell id="uOPO1Oe3B9QStqaCYldA-14" value="&lt;div&gt;IPT&lt;/div&gt;&lt;div&gt;(TaiBIF)&lt;br&gt;&lt;/div&gt;" style="rounded=1;whiteSpace=wrap;html=1;" vertex="1" parent="1">
          <mxGeometry x="620" y="340" width="120" height="60" as="geometry" />
        </mxCell>
        <mxCell id="uOPO1Oe3B9QStqaCYldA-23" value="OP&lt;br&gt;(TBN)" style="rounded=1;whiteSpace=wrap;html=1;" vertex="1" parent="1">
          <mxGeometry x="661" y="500" width="120" height="60" as="geometry" />
        </mxCell>
        <mxCell id="uOPO1Oe3B9QStqaCYldA-25" value="GBIF" style="rounded=1;whiteSpace=wrap;html=1;" vertex="1" parent="1">
          <mxGeometry x="661" y="340" width="120" height="60" as="geometry" />
        </mxCell>
      </root>
    </mxGraphModel>
  </diagram>
</mxfile>
